<svg width="156" height="76" viewBox="0 0 156 76" fill="none" xmlns="http://www.w3.org/2000/svg">
<path d="M38.1169 48.3568L32.4277 29.748H35.683L38.6396 40.4877L39.7396 44.4846C39.7844 44.2852 40.1079 43.0094 40.7002 40.6472L43.6568 29.748H46.8922L49.6746 40.5425L50.6004 44.1008L51.6655 40.5077L54.8511 29.748H57.9122L52.1035 48.3568H48.8334L45.8768 37.2135L45.16 34.0439L41.3971 48.3568H38.107H38.1169Z" fill="#333333"/>
<path d="M72.6952 46.064C71.5305 47.0557 70.4056 47.7584 69.3255 48.167C68.2454 48.5757 67.0906 48.78 65.8512 48.78C63.8105 48.78 62.2426 48.2817 61.1426 47.28C60.0475 46.2832 59.5 45.0074 59.5 43.4525C59.5 42.5405 59.7091 41.7083 60.1222 40.9558C60.5353 40.2032 61.0778 39.6002 61.7498 39.1417C62.4218 38.6882 63.1783 38.3443 64.0145 38.1101C64.6317 37.9457 65.5675 37.7912 66.8119 37.6367C69.3553 37.3327 71.2268 36.9689 72.4314 36.5502C72.4413 36.1167 72.4513 35.8426 72.4513 35.728C72.4513 34.4422 72.1526 33.5401 71.5603 33.0119C70.754 32.2992 69.5594 31.9454 67.9716 31.9454C66.4883 31.9454 65.3983 32.2045 64.6915 32.7228C63.9847 33.2411 63.462 34.1631 63.1236 35.4838L60.0425 35.0651C60.3213 33.7445 60.7842 32.678 61.4263 31.8657C62.0684 31.0533 62.9942 30.4304 64.2087 29.9918C65.4231 29.5533 66.8268 29.334 68.4245 29.334C70.0223 29.334 71.3015 29.5234 72.292 29.8921C73.2825 30.2659 74.0142 30.7344 74.4771 31.3025C74.945 31.8706 75.2685 32.5833 75.4577 33.4504C75.5622 33.9887 75.6169 34.9555 75.6169 36.3609V40.567C75.6169 43.4974 75.6816 45.3513 75.816 46.1287C75.9504 46.9062 76.2142 47.6487 76.6124 48.3614H73.3223C72.9938 47.7085 72.7848 46.9411 72.6902 46.064H72.6952ZM72.4314 39.0221C71.2866 39.4906 69.5743 39.8843 67.2847 40.2132C65.9906 40.4026 65.0747 40.6119 64.5372 40.8461C63.9996 41.0803 63.5865 41.4192 63.2928 41.8727C62.9991 42.3213 62.8548 42.8196 62.8548 43.3728C62.8548 44.215 63.1733 44.9127 63.8105 45.4759C64.4476 46.034 65.3784 46.3181 66.6028 46.3181C67.8272 46.3181 68.8974 46.054 69.8381 45.5207C70.7838 44.9875 71.4757 44.2599 71.9187 43.3379C72.2572 42.6253 72.4264 41.5737 72.4264 40.1833V39.0271L72.4314 39.0221Z" fill="#333333"/>
<path d="M80.4258 48.3564V22.6709H83.5765V48.3564H80.4258Z" fill="#333333"/>
<path d="M88.4785 48.3564V22.6709H91.6292V37.3177L99.0854 29.7476H103.162L96.0592 36.6499L103.879 48.3514H99.9963L93.8541 38.8377L91.6342 40.9757V48.3514H88.4835L88.4785 48.3564Z" fill="#333333"/>
<path d="M106.396 26.299V22.6709H109.547V26.299H106.396ZM106.396 48.3564V29.7476H109.547V48.3564H106.396Z" fill="#333333"/>
<path d="M121.215 45.5358L121.668 48.3216C120.782 48.506 119.986 48.6007 119.289 48.6007C118.144 48.6007 117.258 48.4213 116.631 48.0575C116.004 47.6937 115.556 47.2203 115.302 46.6272C115.043 46.0392 114.919 44.7982 114.919 42.9045V32.1997H112.609V29.7477H114.919V25.1379L118.05 23.2441V29.7428H121.215V32.1947H118.05V43.0739C118.05 43.9759 118.104 44.554 118.214 44.8082C118.323 45.0674 118.508 45.2717 118.757 45.4212C119.005 45.5707 119.364 45.6504 119.832 45.6504C120.18 45.6504 120.643 45.6106 121.215 45.5258V45.5358Z" fill="#333333"/>
<path d="M35.558 29.7373H29.2715V32.882H35.558V29.7373Z" fill="#333333"/>
<path d="M86.7103 45.2109H80.4238V48.3556H86.7103V45.2109Z" fill="#333333"/>
<path d="M112.683 45.2109H106.396V48.3556H112.683V45.2109Z" fill="#333333"/>
</svg>
