<svg width="67" height="90" viewBox="0 0 67 90" fill="none" xmlns="http://www.w3.org/2000/svg">
<path d="M65.7444 33.8583C65.7444 37.1297 65.4598 39.7323 64.6795 42.3657C63.8957 45.0111 62.5892 47.7643 60.4566 51.3088C57.6933 55.9013 53.6427 61.6686 47.7354 70.0795C44.44 74.7717 40.5668 80.2865 36.0169 86.8791C34.9803 88.3735 32.7639 88.3737 31.7272 86.8794C27.1775 80.2873 23.3046 74.7727 20.0093 70.0808C14.1017 61.6692 10.0509 55.9016 7.2876 51.3088C5.15501 47.7643 3.8485 45.0111 3.06475 42.3657C2.28458 39.7323 2 37.1297 2 33.8583C2 16.2652 16.27 2 33.8719 2C51.474 2 65.7444 16.2652 65.7444 33.8583Z" fill="#BD0000" stroke="white" stroke-width="2.20202"/>
<circle cx="33.3209" cy="33.3208" r="14.2368" fill="white"/>
</svg>
