<svg width="68" height="90" viewBox="0 0 68 90" fill="none" xmlns="http://www.w3.org/2000/svg">
<path d="M66 33.8583C66 37.1297 65.7143 39.7323 64.9308 42.3657C64.1439 45.0111 62.8322 47.7643 60.691 51.3088C57.9167 55.9013 53.8498 61.6686 47.9188 70.0796C44.6102 74.7717 40.7214 80.2865 36.1533 86.8791C35.1125 88.3735 32.8873 88.3737 31.8464 86.8794C27.2785 80.2873 23.39 74.7727 20.0815 70.0808C14.1502 61.6692 10.0832 55.9016 7.3088 51.3088C5.16766 47.7643 3.85592 45.0111 3.06902 42.3657C2.28572 39.7323 2 37.1297 2 33.8583C2 16.2652 16.3272 2 33.9998 2C51.6724 2 66 16.2652 66 33.8583Z" fill="#00733B" stroke="white" stroke-width="2.20202"/>
<path d="M38.1947 20.4363C40.5131 20.4363 42.394 18.5469 42.394 16.2181C42.394 13.8894 40.5131 12 38.1947 12C35.8764 12 33.9954 13.8894 33.9954 16.2181C33.9954 18.5469 35.8764 20.4363 38.1947 20.4363ZM46.4621 33.5388L44.4237 32.5019L43.5751 29.9183C42.289 25.9989 38.7022 23.2571 34.6341 23.2484C31.4846 23.2396 29.7437 24.1359 26.4717 25.4629C24.582 26.2274 23.0336 27.6774 22.1237 29.5228L21.5376 30.718C20.8552 32.1064 21.4063 33.7937 22.7798 34.4879C24.1446 35.1821 25.8068 34.6197 26.498 33.2313L27.0841 32.0361C27.3903 31.421 27.8977 30.9377 28.5276 30.6828L30.8722 29.7337L29.5425 35.0679C29.0875 36.8958 29.5774 38.8379 30.846 40.2351L36.0863 45.9823C36.7162 46.6766 37.1624 47.5114 37.3899 48.4165L38.9909 54.858C39.367 56.3607 40.8893 57.2834 42.3853 56.9055C43.8813 56.5277 44.7999 54.9986 44.4237 53.4959L42.4815 45.6748C42.2541 44.7696 41.8079 43.926 41.178 43.2405L37.1974 38.873L38.7022 32.8358L39.1833 34.2858C39.647 35.7006 40.6443 36.8694 41.9566 37.5373L43.995 38.5742C45.3598 39.2685 47.022 38.706 47.7131 37.3176C48.3868 35.9379 47.8356 34.2331 46.4621 33.5388ZM26.4367 45.9032C26.1568 46.615 25.7368 47.2566 25.1944 47.7926L20.8202 52.1953C19.7266 53.2938 19.7266 55.0777 20.8202 56.1761C21.9137 57.2746 23.6809 57.2746 24.7745 56.1761L29.9711 50.9562C30.5048 50.4202 30.9247 49.7786 31.2134 49.0668L32.3945 46.0966C27.5565 40.7975 29.0088 42.4233 28.2477 41.3775L26.4367 45.9032Z" fill="white"/>
</svg>
